<svg class="_chereads_theme_item _self_color" width="156" height="31" viewBox="0 0 156 31" fill="none" xmlns="http://www.w3.org/2000/svg"> <path d="M31.1287 0.364444C31.2638 -0.0709144 31.8743 -0.140102 32.0331 0.287175C32.5595 1.70372 32.8472 3.23636 32.8472 4.83619C32.8472 5.53341 32.7926 6.21787 32.6873 6.88552C35.0279 8.53263 36.5572 11.255 36.5572 14.3345C36.5572 14.892 36.5071 15.4379 36.411 15.9678C36.1131 18.2199 35.3696 20.3313 34.272 22.2108C34.8684 22.9698 35.4285 23.7586 35.9499 24.5746L37.368 23.1632C37.6268 22.9057 38.0671 23.0231 38.1619 23.3749L39.4212 28.0526C39.5162 28.4055 39.1925 28.7295 38.8389 28.6352L34.1389 27.3818C33.7854 27.2875 33.6678 26.8459 33.9274 26.5875L35.3609 25.1608C34.6384 24.7143 33.8953 24.2978 33.1334 23.9133C32.8825 23.7866 32.6296 23.6634 32.3746 23.5437C28.5506 21.7487 24.281 20.7455 19.7771 20.7455C15.5624 20.7455 11.5529 21.624 7.9216 23.2079C7.39401 23.4609 6.81137 23.6592 6.18835 23.7871C3.23262 24.3938 0.487592 23.1858 0.057158 21.0889C-0.297911 19.3592 1.03296 17.5649 3.16903 16.6491C3.12966 16.4232 3.09479 16.1958 3.06453 15.9669C2.96863 15.4373 2.91855 14.8917 2.91855 14.3345C2.91855 11.2158 4.48693 8.46353 6.87797 6.82328C6.77906 6.17535 6.72777 5.51176 6.72777 4.83619C6.72777 3.23637 7.01543 1.70374 7.54185 0.287203C7.70064 -0.140075 8.31119 -0.0708875 8.44625 0.36447C9.02616 2.23366 10.0554 3.90511 11.4078 5.25254C11.6104 5.23907 11.8148 5.23223 12.0208 5.23223C13.5148 5.23223 14.9248 5.59219 16.1687 6.23013C17.2752 6.70844 18.4953 6.97351 19.7774 6.97351C20.9304 6.97351 22.0333 6.75913 23.0484 6.36807C24.3541 5.64432 25.8564 5.23223 27.455 5.23223C27.6924 5.23223 27.9277 5.24132 28.1605 5.25917C29.5161 3.91059 30.5478 2.23671 31.1287 0.364444ZM1.34342 19.9147C1.61803 21.2524 3.20945 22.0837 5.04586 21.9346C4.1844 20.3932 3.55846 18.7023 3.21677 16.9106C1.89844 17.5972 1.10953 18.7752 1.34342 19.9147ZM19.7378 30.5602C14.9484 30.5602 10.6266 28.5583 7.56337 25.3457C11.2885 23.6617 15.4233 22.7243 19.7771 22.7243C24.1095 22.7243 28.2251 23.6525 31.9359 25.3209C28.8713 28.548 24.5396 30.5602 19.7378 30.5602Z" fill="url(#paint0_linear_18_2)"></path> <path d="M54.9229 25.7218C55.8249 25.7218 56.6768 25.5296 57.4786 25.1452C58.297 24.744 59.0069 24.1757 59.6083 23.4403L61.5876 25.3457C60.7692 26.2985 59.7586 27.0506 58.5559 27.6022C57.37 28.1538 56.1256 28.4296 54.8227 28.4296C53.5533 28.4296 52.359 28.1956 51.2398 27.7276C50.1374 27.2596 49.177 26.6244 48.3585 25.8221C47.5567 25.0031 46.922 24.042 46.4543 22.9388C45.9866 21.8356 45.7527 20.6572 45.7527 19.4036C45.7527 18.1333 45.9866 16.9466 46.4543 15.8434C46.922 14.7402 47.5567 13.7875 48.3585 12.9852C49.177 12.1662 50.1374 11.5226 51.2398 11.0546C52.359 10.5866 53.5533 10.3526 54.8227 10.3526C56.159 10.3526 57.4285 10.6284 58.6311 11.18C59.8505 11.7316 60.861 12.4921 61.6628 13.4615L59.6333 15.4673C59.0153 14.6984 58.2887 14.1051 57.4535 13.6872C56.6183 13.2526 55.7414 13.0353 54.8227 13.0353C53.9708 13.0353 53.1774 13.2025 52.4425 13.5368C51.7075 13.8543 51.0728 14.2973 50.5383 14.8656C50.0205 15.4339 49.6029 16.1108 49.2855 16.8964C48.9849 17.6653 48.8345 18.501 48.8345 19.4036C48.8345 20.2895 48.9849 21.1253 49.2855 21.9109C49.6029 22.6797 50.0288 23.3483 50.5633 23.9166C51.1146 24.4682 51.766 24.9112 52.5176 25.2455C53.2693 25.563 54.0711 25.7218 54.9229 25.7218Z" fill="white"></path> <path d="M113.916 26.5743C113.147 27.2094 112.362 27.6774 111.56 27.9783C110.775 28.2792 109.898 28.4296 108.93 28.4296C108.044 28.4296 107.209 28.2625 106.424 27.9282C105.639 27.5939 104.963 27.1342 104.395 26.5492C103.827 25.9642 103.376 25.2705 103.042 24.4682C102.708 23.6659 102.541 22.8135 102.541 21.9109C102.541 20.9915 102.691 20.1391 102.992 19.3535C103.309 18.5512 103.735 17.8659 104.269 17.2976C104.821 16.7126 105.472 16.2529 106.224 15.9186C106.975 15.5843 107.785 15.4172 108.654 15.4172C109.506 15.4172 110.291 15.5843 111.009 15.9186C111.744 16.2362 112.371 16.6791 112.888 17.2474C113.423 17.8157 113.84 18.501 114.141 19.3034C114.442 20.0889 114.592 20.9498 114.592 21.8858V22.5878H105.322C105.455 23.574 105.873 24.393 106.574 25.0449C107.293 25.6967 108.128 26.0227 109.08 26.0227C109.665 26.0227 110.216 25.9224 110.734 25.7218C111.268 25.5045 111.711 25.212 112.061 24.8443L113.916 26.5743ZM108.629 17.7238C107.794 17.7238 107.084 18.008 106.499 18.5763C105.915 19.1446 105.539 19.9051 105.372 20.8578H111.911C111.744 19.9385 111.36 19.1863 110.759 18.6013C110.174 18.0163 109.464 17.7238 108.629 17.7238Z" fill="white"></path> <path d="M121.19 28.3795C119.887 28.3795 118.818 28.0285 117.983 27.3264C117.164 26.6077 116.755 25.6884 116.755 24.5685C116.755 23.4486 117.181 22.5544 118.033 21.8858C118.902 21.2172 120.071 20.8829 121.541 20.8829C122.125 20.8829 122.693 20.9498 123.245 21.0835C123.796 21.2005 124.355 21.3927 124.923 21.6601V20.2812C124.923 19.4621 124.681 18.8437 124.197 18.4258C123.712 17.9912 122.994 17.774 122.042 17.774C121.524 17.774 120.965 17.8575 120.363 18.0247C119.762 18.1751 119.102 18.4175 118.384 18.7518L117.382 16.6959C118.317 16.2613 119.211 15.9437 120.063 15.7431C120.914 15.5258 121.758 15.4172 122.593 15.4172C124.213 15.4172 125.474 15.8183 126.376 16.6206C127.278 17.4062 127.729 18.5261 127.729 19.9803V28.1789H124.923V26.9002C124.355 27.4184 123.771 27.7945 123.169 28.0285C122.568 28.2625 121.908 28.3795 121.19 28.3795ZM119.411 24.5184C119.411 25.0867 119.645 25.5463 120.113 25.8973C120.58 26.2316 121.198 26.3988 121.967 26.3988C122.535 26.3988 123.061 26.3152 123.545 26.148C124.046 25.9809 124.506 25.7218 124.923 25.3708V23.3149C124.472 23.0976 124.013 22.9472 123.545 22.8636C123.077 22.7633 122.568 22.7132 122.017 22.7132C121.215 22.7132 120.58 22.8803 120.113 23.2146C119.645 23.5322 119.411 23.9668 119.411 24.5184Z" fill="white"></path> <path d="M140.127 28.1789V26.4991C139.693 27.0674 139.133 27.5103 138.448 27.8279C137.78 28.1455 137.053 28.3043 136.268 28.3043C135.483 28.3043 134.74 28.1371 134.038 27.8028C133.337 27.4685 132.727 27.0172 132.209 26.4489C131.708 25.8639 131.307 25.1869 131.007 24.4181C130.723 23.6325 130.581 22.7967 130.581 21.9109C130.581 21.025 130.731 20.1892 131.032 19.4036C131.332 18.618 131.742 17.9411 132.259 17.3728C132.794 16.8045 133.42 16.3532 134.139 16.0189C134.857 15.6846 135.625 15.5175 136.444 15.5175C137.162 15.5175 137.83 15.6679 138.448 15.9688C139.083 16.2529 139.634 16.6541 140.102 17.1722V10.2523L142.933 9.77594V28.1789H140.127ZM133.387 21.9109C133.387 23.0475 133.746 24.0002 134.464 24.7691C135.183 25.538 136.068 25.9224 137.12 25.9224C137.722 25.9224 138.273 25.8054 138.774 25.5714C139.292 25.3374 139.734 24.9947 140.102 24.5434V19.2532C139.734 18.8353 139.292 18.5094 138.774 18.2754C138.256 18.0247 137.705 17.8993 137.12 17.8993C136.051 17.8993 135.158 18.2838 134.439 19.0526C133.738 19.8048 133.387 20.7575 133.387 21.9109Z" fill="white"></path> <path d="M145.322 26.7247L146.65 24.8192C147.468 25.3374 148.187 25.7051 148.805 25.9224C149.423 26.1397 150.049 26.2483 150.684 26.2483C151.436 26.2483 152.045 26.0979 152.513 25.797C152.981 25.4795 153.214 25.0699 153.214 24.5685C153.214 24.1841 153.072 23.8832 152.789 23.6659C152.521 23.4319 152.087 23.2564 151.486 23.1394L149.256 22.7633C148.053 22.546 147.143 22.1532 146.525 21.5849C145.923 20.9999 145.623 20.2394 145.623 19.3034C145.623 18.1333 146.065 17.1973 146.951 16.4953C147.853 15.7765 149.03 15.4172 150.483 15.4172C151.352 15.4172 152.187 15.5425 152.989 15.7933C153.807 16.0273 154.618 16.4033 155.419 16.9215L154.091 18.7768C153.44 18.359 152.805 18.0581 152.187 17.8742C151.569 17.6737 150.943 17.5734 150.308 17.5734C149.657 17.5734 149.13 17.7071 148.73 17.9745C148.345 18.2253 148.153 18.5846 148.153 19.0526C148.153 19.4538 148.279 19.7547 148.529 19.9552C148.796 20.1558 149.264 20.3146 149.932 20.4316L152.137 20.8328C153.39 21.0668 154.317 21.4763 154.918 22.0613C155.536 22.6463 155.845 23.4068 155.845 24.3429C155.845 24.9112 155.712 25.446 155.444 25.9475C155.194 26.4489 154.835 26.8835 154.367 27.2512C153.916 27.6189 153.373 27.9115 152.738 28.1287C152.12 28.3293 151.452 28.4296 150.734 28.4296C149.648 28.4296 148.638 28.2875 147.702 28.0034C146.784 27.7025 145.99 27.2763 145.322 26.7247Z" fill="white"></path> <path d="M64.3351 28.1789V10.2523L67.1663 9.77594V17.6737C67.634 16.9382 68.2019 16.3783 68.8701 15.9938C69.5549 15.6094 70.3149 15.4172 71.1501 15.4172C72.4196 15.4172 73.4552 15.8434 74.2569 16.6959C75.0754 17.5316 75.4846 18.6013 75.4846 19.9051V28.1789H72.6534V20.7074C72.6534 19.8048 72.4029 19.0777 71.9018 18.5261C71.4006 17.9745 70.7325 17.6987 69.8973 17.6987C69.3294 17.6987 68.8116 17.8325 68.3439 18.0999C67.8929 18.3506 67.5004 18.7183 67.1663 19.2031V28.1789H64.3351Z" fill="url(#paint1_linear_18_2)"></path> <path d="M89.7168 26.5743C88.9484 27.2094 88.1634 27.6774 87.3616 27.9783C86.5765 28.2792 85.6996 28.4296 84.7308 28.4296C83.8455 28.4296 83.0103 28.2625 82.2253 27.9282C81.4402 27.5939 80.7637 27.1342 80.1958 26.5492C79.6279 25.9642 79.1769 25.2705 78.8428 24.4682C78.5088 23.6659 78.3417 22.8135 78.3417 21.9109C78.3417 20.9915 78.4921 20.1391 78.7927 19.3535C79.1101 18.5512 79.536 17.8659 80.0705 17.2976C80.6217 16.7126 81.2732 16.2529 82.0248 15.9186C82.7765 15.5843 83.5866 15.4172 84.4552 15.4172C85.3071 15.4172 86.0921 15.5843 86.8104 15.9186C87.5453 16.2362 88.1717 16.6791 88.6895 17.2474C89.224 17.8157 89.6416 18.501 89.9423 19.3034C90.2429 20.0889 90.3933 20.9498 90.3933 21.8858V22.5878H81.1228C81.2565 23.574 81.6741 24.393 82.3756 25.0449C83.0939 25.6967 83.929 26.0227 84.8811 26.0227C85.4657 26.0227 86.017 25.9224 86.5348 25.7218C87.0693 25.5045 87.5119 25.212 87.8627 24.8443L89.7168 26.5743ZM84.4301 17.7238C83.595 17.7238 82.8851 18.008 82.3004 18.5763C81.7158 19.1446 81.34 19.9051 81.173 20.8578H87.7124C87.5453 19.9385 87.1611 19.1863 86.5598 18.6013C85.9752 18.0163 85.2653 17.7238 84.4301 17.7238Z" fill="url(#paint2_linear_18_2)"></path> <path d="M93.2807 28.1789V15.6177H96.1119V18.3506C96.446 17.3979 96.9053 16.6708 97.49 16.1693C98.0913 15.6512 98.7845 15.3921 99.5695 15.3921C99.8034 15.4088 100.012 15.4339 100.196 15.4673C100.38 15.5007 100.58 15.5592 100.797 15.6428V18.125C100.58 18.0247 100.33 17.9495 100.046 17.8993C99.7783 17.8492 99.5111 17.8241 99.2438 17.8241C98.5757 17.8241 97.966 18.008 97.4148 18.3757C96.8636 18.7434 96.4293 19.2532 96.1119 19.9051V28.1789H93.2807Z" fill="url(#paint3_linear_18_2)"></path> <defs> <linearGradient id="paint0_linear_18_2" x1="12.0154" y1="8.77602" x2="23.9085" y2="29.589" gradientUnits="userSpaceOnUse"> <stop offset="0.526432" stop-color="#F4511E"></stop> <stop offset="1" stop-color="#F41313"></stop> </linearGradient> <linearGradient id="paint1_linear_18_2" x1="75.4438" y1="15.1328" x2="81.0095" y2="29.8854" gradientUnits="userSpaceOnUse"> <stop offset="0.526432" stop-color="#F4511E"></stop> <stop offset="1" stop-color="#EA002A"></stop> </linearGradient> <linearGradient id="paint2_linear_18_2" x1="75.4438" y1="15.1328" x2="81.0095" y2="29.8854" gradientUnits="userSpaceOnUse"> <stop offset="0.526432" stop-color="#F4511E"></stop> <stop offset="1" stop-color="#EA002A"></stop> </linearGradient> <linearGradient id="paint3_linear_18_2" x1="75.4438" y1="15.1328" x2="81.0095" y2="29.8854" gradientUnits="userSpaceOnUse"> <stop offset="0.526432" stop-color="#F4511E"></stop> <stop offset="1" stop-color="#EA002A"></stop> </linearGradient> </defs> </svg>